<?xml version="1.0" standalone="no"?>
<!DOCTYPE svg PUBLIC "-//W3C//DTD SVG 20010904//EN"
 "http://www.w3.org/TR/2001/REC-SVG-20010904/DTD/svg10.dtd">
<svg version="1.0" xmlns="http://www.w3.org/2000/svg"
 width="500.000000pt" height="500.000000pt" viewBox="0 0 500.000000 500.000000"
 preserveAspectRatio="xMidYMid meet">
<metadata>
Created by potrace 1.14, written by Peter Selinger 2001-2017
</metadata>
<g transform="translate(0.000000,500.000000) scale(0.100000,-0.100000)"
fill="#000000" stroke="none">
<path d="M0 2500 l0 -2500 2500 0 2500 0 0 2500 0 2500 -2500 0 -2500 0 0
-2500z m2875 2321 c244 -41 446 -106 660 -212 708 -348 1190 -1017 1301 -1804
20 -144 23 -459 5 -585 -54 -378 -175 -710 -361 -995 -384 -587 -968 -959
-1669 -1061 -150 -22 -461 -22 -616 0 -900 128 -1642 742 -1924 1591 -85 255
-121 478 -121 747 0 785 393 1516 1050 1953 329 220 687 345 1105 389 105 11
454 -3 570 -23z"/>
<path d="M2355 4646 c-204 -64 -411 -277 -564 -581 -55 -109 -111 -241 -111
-260 0 -25 486 -84 693 -85 l37 0 0 470 c0 259 -3 470 -7 469 -5 0 -26 -6 -48
-13z"/>
<path d="M2590 4189 l0 -472 128 7 c204 11 592 57 610 71 2 2 -13 42 -32 89
-120 289 -274 518 -434 646 -65 52 -183 113 -239 125 l-33 7 0 -473z"/>
<path d="M1810 4557 c-208 -73 -391 -166 -562 -287 -100 -71 -263 -210 -263
-226 0 -29 462 -215 499 -201 6 3 27 44 45 92 79 207 212 438 336 579 36 42
60 76 53 76 -7 0 -56 -15 -108 -33z"/>
<path d="M3129 4524 c122 -134 245 -340 336 -564 26 -63 49 -117 50 -118 6 -6
182 47 263 79 103 40 242 110 242 121 0 27 -250 227 -386 309 -121 73 -314
163 -435 204 -59 19 -112 35 -119 35 -6 0 15 -30 49 -66z"/>
<path d="M766 3800 c-251 -334 -391 -705 -430 -1147 l-6 -63 474 0 473 0 7
133 c14 269 59 579 116 807 17 66 30 123 30 128 0 4 -43 21 -97 36 -132 39
-303 108 -395 161 -43 25 -82 45 -87 45 -5 0 -43 -45 -85 -100z"/>
<path d="M4115 3883 c-64 -50 -468 -213 -530 -213 -19 0 -19 -1 5 -85 67 -233
130 -679 130 -916 l0 -79 475 0 475 0 0 34 c0 76 -34 289 -66 414 -56 222
-156 448 -280 641 -71 108 -161 221 -177 221 -7 0 -21 -8 -32 -17z"/>
<path d="M1582 3493 c-57 -235 -95 -478 -107 -683 -3 -58 -8 -131 -11 -162
l-5 -58 476 0 475 0 0 473 0 473 -192 12 c-198 12 -375 32 -508 58 -41 8 -80
14 -86 14 -6 0 -25 -57 -42 -127z"/>
<path d="M3250 3599 c-133 -24 -345 -46 -522 -55 l-138 -7 0 -473 0 -474 475
0 475 0 0 48 c0 157 -41 504 -84 707 -42 195 -66 275 -85 274 -9 -1 -63 -10
-121 -20z"/>
<path d="M336 2348 c39 -442 171 -800 424 -1143 95 -129 84 -124 177 -71 97
57 263 126 385 162 51 15 97 31 102 35 4 4 -6 63 -22 131 -63 251 -95 466
-114 761 l-12 187 -473 0 -473 0 6 -62z"/>
<path d="M1466 2318 c10 -179 36 -414 60 -553 21 -118 78 -366 90 -386 2 -3
50 2 106 12 167 29 362 49 531 56 l157 6 0 479 0 478 -475 0 -475 0 6 -92z"/>
<path d="M2592 1933 l3 -478 154 -7 c177 -8 384 -30 534 -57 56 -10 103 -18
104 -17 1 1 16 56 33 121 60 232 102 516 116 788 l7 127 -477 0 -476 0 2 -477z"/>
<path d="M3717 2258 c-12 -270 -55 -566 -117 -807 -17 -63 -29 -115 -27 -117
1 -1 64 -23 140 -48 140 -46 291 -112 379 -166 26 -17 52 -30 57 -30 13 0 139
169 202 271 122 196 228 460 274 687 24 116 45 268 45 330 l0 32 -473 0 -474
0 -6 -152z"/>
<path d="M2155 1263 c-77 -5 -374 -43 -427 -55 -27 -5 -48 -14 -48 -19 0 -20
73 -187 125 -287 96 -181 202 -321 318 -420 64 -55 198 -127 255 -138 l32 -6
0 466 0 466 -102 -2 c-57 -1 -125 -3 -153 -5z"/>
<path d="M2590 805 c0 -530 -10 -484 92 -444 236 93 461 370 617 759 27 68 28
76 13 81 -60 22 -492 69 -639 69 l-83 0 0 -465z"/>
<path d="M1340 1111 c-129 -43 -272 -106 -337 -148 -22 -15 -22 -15 34 -66
154 -142 327 -259 518 -352 120 -59 363 -150 373 -140 3 2 -24 35 -58 72 -119
130 -253 358 -335 569 -21 54 -41 102 -44 106 -3 4 -71 -15 -151 -41z"/>
<path d="M3481 1074 c-81 -214 -214 -442 -345 -596 l-66 -77 53 16 c237 69
502 205 697 356 130 101 201 169 190 182 -28 34 -277 140 -426 183 l-71 20
-32 -84z"/>
</g>
</svg>
