<?xml version="1.0" standalone="no"?>
<!DOCTYPE svg PUBLIC "-//W3C//DTD SVG 20010904//EN"
 "http://www.w3.org/TR/2001/REC-SVG-20010904/DTD/svg10.dtd">
<svg version="1.0" xmlns="http://www.w3.org/2000/svg"
 width="700.000000pt" height="700.000000pt" viewBox="0 0 700.000000 700.000000"
 preserveAspectRatio="xMidYMid meet">
<metadata>
Created by potrace 1.14, written by Peter Selinger 2001-2017
</metadata>
<g transform="translate(0.000000,700.000000) scale(0.100000,-0.100000)"
fill="#000000" stroke="none">
<path d="M3387 6914 c-1 -1 -42 -4 -92 -7 -481 -32 -1008 -197 -1455 -454
-126 -73 -383 -254 -481 -340 -120 -105 -242 -223 -236 -229 2 -3 25 5 50 16
169 75 676 232 887 274 14 3 90 19 170 36 188 39 481 82 655 95 44 4 96 8 115
11 19 2 148 7 285 10 l250 6 -33 -24 c-18 -12 -76 -54 -130 -91 -53 -38 -105
-76 -115 -86 -17 -16 27 -17 815 -17 563 1 845 -2 874 -10 23 -6 58 -23 78
-37 107 -82 95 -256 -22 -325 l-47 -27 -1985 -1 c-1092 0 -1996 -4 -2010 -8
-117 -37 -159 -186 -77 -274 55 -59 12 -56 867 -57 572 -1 784 -4 783 -12 -2
-7 -27 -49 -56 -95 -29 -46 -56 -91 -60 -100 -6 -17 79 -18 1691 -18 1628 0
1699 -1 1737 -19 164 -76 149 -323 -23 -371 -25 -7 -912 -10 -2741 -10 -2678
0 -2705 0 -2745 -20 -118 -57 -124 -228 -11 -297 28 -17 75 -18 901 -21 l870
-2 -27 -107 c-16 -59 -27 -108 -25 -110 2 -2 928 -5 2057 -6 1940 -2 2056 -3
2086 -20 150 -81 149 -282 -2 -360 l-40 -20 -2990 -1 c-2938 -1 -2991 -1
-3022 -20 -53 -33 -77 -74 -81 -141 -3 -50 0 -66 20 -94 12 -19 36 -44 51 -55
28 -21 35 -21 939 -26 l910 -5 3 -104 c2 -57 7 -106 10 -110 4 -3 943 -6 2088
-6 l2082 0 37 -23 c123 -76 142 -228 41 -324 -15 -15 -41 -32 -58 -39 -24 -10
-630 -13 -2955 -14 -2767 -1 -2927 -2 -2962 -19 -20 -10 -48 -35 -63 -57 -64
-97 -16 -227 95 -256 20 -5 427 -8 935 -8 897 1 900 1 912 -19 7 -12 12 -26
13 -33 0 -6 14 -48 31 -92 l31 -81 1794 0 c1743 1 1796 0 1838 -18 91 -41 134
-129 112 -232 -10 -43 -59 -103 -106 -126 l-45 -23 -2510 -1 -2510 0 -45 -23
c-123 -62 -115 -241 14 -297 39 -17 96 -18 955 -18 l915 0 20 -24 c12 -14 53
-64 91 -111 l70 -87 225 0 c124 -1 601 -1 1060 -1 594 1 846 -2 872 -10 98
-31 157 -143 129 -246 -14 -50 -78 -117 -129 -134 -28 -9 -244 -12 -879 -12
-464 0 -843 -1 -843 -2 0 -5 153 -117 218 -160 39 -26 72 -49 72 -51 0 -4
-439 4 -520 10 -137 11 -189 16 -312 31 -159 20 -375 55 -493 80 -38 9 -79 17
-90 19 -67 13 -404 103 -531 142 -154 48 -397 135 -448 161 l-28 15 18 -24
c27 -35 218 -208 309 -280 350 -278 750 -486 1171 -608 152 -45 370 -90 500
-105 32 -4 68 -9 79 -11 110 -22 577 -21 755 1 104 13 130 16 185 26 33 5 101
19 150 29 50 11 100 22 111 24 12 3 76 21 142 40 610 183 1131 512 1560 987
113 123 118 130 219 266 215 289 399 652 505 993 69 225 108 407 135 635 9 78
10 690 0 775 -37 344 -137 708 -277 1015 -62 135 -83 178 -128 259 -495 888
-1363 1512 -2361 1697 -95 17 -166 27 -326 45 -51 6 -462 13 -468 8z"/>
</g>
</svg>
