<svg xmlns="http://www.w3.org/2000/svg" xmlns:xlink="http://www.w3.org/1999/xlink" width="160" zoomAndPan="magnify" viewBox="0 0 120 143.999998" height="192" preserveAspectRatio="xMidYMid meet" version="1.0"><path fill="#ff914d" d="M 0.0351562 93.046875 C 0.0351562 79.382812 3.722656 68.308594 9.628906 59.816406 C 9.628906 76.617188 13.6875 82.523438 22.542969 82.523438 C 28.449219 82.523438 34.539062 78.09375 34.539062 70.523438 C 34.539062 63.691406 29.925781 51.324219 29.925781 38.03125 C 29.925781 24.738281 34.351562 10.523438 52.433594 0 C 48.375 10.707031 46.714844 19.753906 46.714844 27.136719 C 46.714844 46.707031 58.523438 55.570312 69.039062 55.570312 C 77.527344 55.570312 86.386719 50.03125 86.386719 33.96875 C 92.105469 40.246094 94.6875 47.445312 94.6875 54.644531 C 94.6875 66.09375 88.414062 76.246094 88.414062 85.476562 C 88.414062 93.046875 94.503906 97.476562 100.40625 97.476562 C 110.925781 97.476562 114.0625 88.0625 114.0625 72.554688 C 117.199219 77.90625 119.964844 88.429688 119.964844 97.476562 C 119.964844 124.429688 94.503906 144 66.089844 144 C 90.074219 134.953125 94.503906 122.953125 94.503906 109.476562 C 88.597656 120 82.511719 121.476562 79.558594 121.476562 C 61.476562 121.476562 81.035156 86.953125 49.484375 62.953125 C 54.648438 74.03125 56.679688 83.628906 56.679688 91.382812 C 56.679688 108 47.636719 117.046875 38.964844 117.046875 C 31.585938 117.046875 24.203125 111.136719 21.253906 98.585938 C 21.253906 116.125 26.417969 132.738281 49.484375 144 C 13.503906 138.09375 0.0351562 115.570312 0.0351562 93.046875 Z M 0.0351562 93.046875 " fill-opacity="1" fill-rule="nonzero"/></svg>