<svg xmlns="http://www.w3.org/2000/svg" xmlns:xlink="http://www.w3.org/1999/xlink" width="200" zoomAndPan="magnify" viewBox="0 0 150 149.999998" height="200" preserveAspectRatio="xMidYMid meet" version="1.0"><defs><clipPath id="147815bf92"><path d="M 0.917969 1.746094 L 149.078125 1.746094 L 149.078125 147.996094 L 0.917969 147.996094 Z M 0.917969 1.746094 " clip-rule="nonzero"/></clipPath></defs><g clip-path="url(#147815bf92)"><path fill="#ffffff" d="M 130.742188 80.898438 L 42.488281 80.898438 C 42.355469 79.316406 42.277344 77.714844 42.246094 76.101562 L 4.566406 76.101562 C 2.546875 76.101562 0.929688 74.433594 0.992188 72.417969 C 0.992188 72.386719 0.996094 72.355469 0.996094 72.324219 C 1.054688 70.390625 2.636719 68.855469 4.566406 68.855469 L 130.742188 68.855469 C 133.363281 68.855469 135.367188 66.511719 134.945312 63.925781 C 134.941406 63.898438 134.9375 63.867188 134.929688 63.839844 C 134.59375 61.777344 132.820312 60.261719 130.730469 60.261719 L 43.738281 60.261719 C 44.074219 58.640625 44.46875 57.039062 44.914062 55.460938 L 8.746094 55.460938 C 6.230469 55.460938 4.472656 52.941406 5.371094 50.589844 C 5.382812 50.566406 5.390625 50.539062 5.402344 50.515625 C 5.933594 49.128906 7.273438 48.21875 8.757812 48.21875 L 123.527344 48.21875 C 126.773438 48.21875 128.832031 44.722656 127.246094 41.890625 C 127.230469 41.863281 127.214844 41.832031 127.199219 41.808594 C 126.441406 40.460938 125.023438 39.621094 123.480469 39.621094 L 51.554688 39.621094 C 52.492188 37.976562 53.492188 36.378906 54.550781 34.824219 L 21.574219 34.824219 C 18.445312 34.824219 16.796875 31.089844 18.917969 28.789062 C 18.941406 28.765625 18.960938 28.742188 18.984375 28.71875 C 19.660156 27.988281 20.613281 27.578125 21.613281 27.578125 L 105.023438 27.578125 C 109.175781 27.578125 110.863281 22.253906 107.484375 19.84375 C 107.449219 19.816406 107.414062 19.789062 107.375 19.765625 C 106.65625 19.253906 105.796875 18.980469 104.914062 18.980469 L 69.296875 18.980469 C 71.367188 17.34375 73.527344 15.816406 75.777344 14.414062 C 46.875 13.601562 23.613281 24.199219 23.613281 24.203125 C 36.894531 10.390625 55.546875 1.789062 76.214844 1.773438 C 116.601562 1.738281 149.273438 34.339844 149.34375 74.75 C 149.414062 115.183594 116.671875 147.984375 76.273438 147.984375 C 55.585938 147.984375 36.90625 139.382812 23.613281 125.558594 C 23.613281 125.558594 46.875 136.15625 75.777344 135.34375 C 73.527344 133.941406 71.367188 132.414062 69.296875 130.777344 L 104.914062 130.777344 C 105.796875 130.777344 106.65625 130.503906 107.375 129.992188 C 107.414062 129.964844 107.449219 129.941406 107.484375 129.914062 C 110.863281 127.503906 109.175781 122.175781 105.023438 122.175781 L 60.195312 122.175781 C 58.824219 120.636719 57.523438 119.035156 56.292969 117.378906 L 17.578125 117.378906 C 16.449219 117.378906 15.394531 116.84375 14.710938 115.949219 C 14.695312 115.925781 14.675781 115.902344 14.660156 115.878906 C 12.871094 113.523438 14.570312 110.136719 17.523438 110.136719 L 123.480469 110.136719 C 125.023438 110.136719 126.441406 109.296875 127.199219 107.949219 C 127.214844 107.921875 127.230469 107.894531 127.246094 107.867188 C 128.832031 105.03125 126.773438 101.539062 123.527344 101.539062 L 47.390625 101.539062 C 46.757812 99.964844 46.179688 98.367188 45.65625 96.738281 L 7.121094 96.738281 C 5.53125 96.738281 4.132812 95.691406 3.679688 94.164062 C 3.675781 94.140625 3.667969 94.117188 3.660156 94.089844 C 2.984375 91.796875 4.710938 89.496094 7.101562 89.496094 L 130.730469 89.496094 C 132.820312 89.496094 134.59375 87.976562 134.929688 85.917969 C 134.9375 85.886719 134.941406 85.859375 134.945312 85.828125 C 135.367188 83.242188 133.363281 80.898438 130.742188 80.898438 " fill-opacity="1" fill-rule="nonzero"/></g></svg>